<svg id="Layer_1" data-name="Layer 1" xmlns="http://www.w3.org/2000/svg" viewBox="0 0 546.3 112.83"><defs><style>.cls-1{fill:#fff;}</style></defs><title>All white</title><path class="cls-1" d="M21.65,80.38H14.51c-2.17,0-3.28-1-3.46-3.2-.1-1.19-.18-2.39-.28-3.58a36.61,36.61,0,0,0-2-8.74A97.44,97.44,0,0,0,2.6,51,21.67,21.67,0,1,1,43,37.09a22.13,22.13,0,0,1-2.44,14.26,85.05,85.05,0,0,0-6.84,16.15A28.62,28.62,0,0,0,32.48,75a15.43,15.43,0,0,1-.26,2.45A5.71,5.71,0,0,1,31.69,79a2.36,2.36,0,0,1-2.26,1.35Z"/><path class="cls-1" d="M29.87,85.47c1.12.44,1.65,1.09,1.64,2a2.06,2.06,0,0,1-1.61,1.91l.34.17a1.93,1.93,0,0,1-.71,3.74c-2.77,0-5.54,0-8.31,0-2.47,0-4.93,0-7.4,0A1.89,1.89,0,0,1,12,90.5a4.42,4.42,0,0,1,1.08-1,1.44,1.44,0,0,1,.3-.15c-1.09-.43-1.61-1.08-1.61-2s.54-1.53,1.64-1.94l-.34-.15a1.93,1.93,0,0,1-1.26-2.12,2,2,0,0,1,2-1.63c.95,0,1.9,0,2.84,0H29.22a3.38,3.38,0,0,1,.9.1,1.93,1.93,0,0,1,1.39,1.72,2,2,0,0,1-1.13,1.86Z"/><path class="cls-1" d="M27.92,94.08a7.81,7.81,0,0,1-12.5,0Z"/><path class="cls-1" d="M48.67,93.88V64.13c0-27.68,15-32.58,31.49-32.58,10.9,0,19.94,2.29,26.26,11.88,6.32-9.59,15.47-11.88,26.37-11.88,16.45,0,31.38,4.9,31.38,32.58V93.88a1.12,1.12,0,0,1-1.09,1.2h-8a1.12,1.12,0,0,1-1.09-1.2V64.13c0-20.81-9.81-24.52-21.25-24.52s-21.25,3.7-21.25,24.52V93.88a1.12,1.12,0,0,1-1.09,1.2h-8a1.12,1.12,0,0,1-1.09-1.2V64.13c0-20.81-9.81-24.52-21.25-24.52s-21.25,3.7-21.25,24.52V93.88a1.21,1.21,0,0,1-1.2,1.2h-8A1.12,1.12,0,0,1,48.67,93.88Z"/><path class="cls-1" d="M209.61,31.55c16.45,0,33.67,4.9,33.67,32.58V93.88a1.12,1.12,0,0,1-1.2,1.09H236.2a1.18,1.18,0,0,1-1.2-.87l-2-7c-4.47,7.19-15,9.59-23.43,9.59-16.45,0-33.56-4.9-33.56-32.58S193.16,31.55,209.61,31.55Zm0,57.1c11.44,0,23.43-3.7,23.43-24.52s-12-24.52-23.43-24.52-23.43,3.7-23.43,24.52S198.17,88.65,209.61,88.65Z"/><path class="cls-1" d="M288.72,31.44c16.45,0,33.67,4.9,33.67,32.58v23.1c0,21.25-17.22,25.72-33.67,25.72-7.19,0-18.52-1-26.81-4.25a1.39,1.39,0,0,1-1-1.2V100.2a.75.75,0,0,1,.76-.76c.11,0,.22.11.33.11a72.12,72.12,0,0,0,26.7,5.34c11.44,0,23.43-2.4,23.43-17.76V87c-4.47,7.19-15,9.59-23.43,9.59-16.45,0-33.56-4.9-33.56-32.58S272.26,31.44,288.72,31.44ZM265.29,64c0,20.81,12,24.63,23.43,24.63S312.15,84.83,312.15,64s-12-24.52-23.43-24.52S265.29,43.21,265.29,64Z"/><path class="cls-1" d="M330,33.29h7.52a2,2,0,0,1,1.85,1.2l19.29,49.14A5.47,5.47,0,0,0,363.79,87a5.33,5.33,0,0,0,5-3.38l19.29-49.14a2,2,0,0,1,1.85-1.2H397a1.17,1.17,0,0,1,1.09,1.63l-25.28,65.6a18.77,18.77,0,0,1-17.43,12H339.06a1.49,1.49,0,0,1-1.53-1.53v-5a1.4,1.4,0,0,1,1.53-1.42h14.17c4.69,0,8.61-3.16,10.46-7.41l.87-2.07c-9.81,0-13.51-4.47-16-11L329.25,34.49A.85.85,0,0,1,330,33.29Z"/><path class="cls-1" d="M404.33,93.88V64c0-27.68,17.22-32.47,33.67-32.47S471.56,36.34,471.56,64V93.88A1,1,0,0,1,470.47,95h-8a1,1,0,0,1-1.09-1.09V64c0-20.81-12-24.52-23.43-24.52S414.57,43.21,414.57,64V93.88A1,1,0,0,1,413.48,95h-8A1.12,1.12,0,0,1,404.33,93.88Z"/><path class="cls-1" d="M514.92,31.44c16.34,0,31.27,4.9,31.38,32.25v4.14a1.17,1.17,0,0,1-1.09,1.09H495.09a1,1,0,0,0-1,1.09c3.05,15.47,14.93,18.52,25.17,18.52,7.85,0,17.11-1,21.9-5.67a.65.65,0,0,1,.44-.11,1,1,0,0,1,1,1v6.1A2.51,2.51,0,0,1,541.4,92c-5.77,3.27-15.15,4.58-22.12,4.58-16.45,0-35.85-4.9-35.85-32.58S498.47,31.44,514.92,31.44Zm-20,29.31h41.19c-1-18-10.35-21.25-21.14-21.25-10.57,0-19.5,3.16-21,20.16A1.08,1.08,0,0,0,494.87,60.75Z"/><path class="cls-1" d="M423.16,18.26h-2.31V15.9h2.31Z"/><path class="cls-1" d="M429.57,18.26h-2.31V15.9h2.31Z"/><path class="cls-1" d="M436,18.26h-2.31V15.9H436Z"/><path class="cls-1" d="M442.4,18.26h-2.31V15.9h2.31Z"/><path class="cls-1" d="M458.53,3h-5.62V18.26H450.6V3h-5.55V1.22h13.47Z"/><path class="cls-1" d="M462.94,7.29a4.68,4.68,0,0,1,1.61-1.42,4.42,4.42,0,0,1,2.11-.51,4.09,4.09,0,0,1,3.15,1.22,5.36,5.36,0,0,1,1.13,3.75v7.94h-2.31v-8A3.39,3.39,0,0,0,468,8a2.56,2.56,0,0,0-2-.75,3.77,3.77,0,0,0-1.79.4,3.26,3.26,0,0,0-1.23,1.13v9.49h-2.31V0h2.31Z"/><path class="cls-1" d="M476.75,2.35h-2.31V0h2.31Zm0,15.91h-2.31V5.59h2.31Z"/><path class="cls-1" d="M482.36,5.59l.16,1.88a4.61,4.61,0,0,1,1.59-1.56,4.24,4.24,0,0,1,2.17-.56,4.13,4.13,0,0,1,3.17,1.2,5.27,5.27,0,0,1,1.12,3.7v8h-2.31V10.31a3.42,3.42,0,0,0-.66-2.38,2.65,2.65,0,0,0-2-.7,3.57,3.57,0,0,0-1.81.43,3.11,3.11,0,0,0-1.18,1.2v9.4H480.3V5.59Z"/><path class="cls-1" d="M497.42,12.42h-1.18v5.84h-2.31V0h2.31V10.58h1.16l3.8-5H504l-4.6,5.84,5,6.82h-2.73Z"/><path class="cls-1" d="M512.49,18.26v-17H518a6.74,6.74,0,0,1,4.18,1.15,4.08,4.08,0,0,1,1.51,3.46,3.13,3.13,0,0,1-.68,2,4.26,4.26,0,0,1-1.8,1.33,4,4,0,0,1,2.65,1.45,4.45,4.45,0,0,1,1,2.87A4.34,4.34,0,0,1,523.36,17a6.35,6.35,0,0,1-4.12,1.23Zm2.31-9.8h3.73a3.06,3.06,0,0,0,2.1-.71,2.49,2.49,0,0,0,.81-2,2.47,2.47,0,0,0-.87-2.07A4,4,0,0,0,518,3h-3.25Zm0,1.8v6.19h4.45a3.56,3.56,0,0,0,2.45-.78,2.8,2.8,0,0,0,.87-2.21,3,3,0,0,0-.89-2.28,3.5,3.5,0,0,0-2.4-.92h-4.48Z"/><path class="cls-1" d="M529.91,2.35H527.6V0h2.31Zm0,15.91H527.6V5.59h2.31Z"/><path class="cls-1" d="M533,12.16a8.45,8.45,0,0,1,1.31-4.93A4.19,4.19,0,0,1,538,5.36a4.45,4.45,0,0,1,2.12.49,4.26,4.26,0,0,1,1.53,1.4l.28-1.65h1.84V18.33a4.83,4.83,0,0,1-1.42,3.74,5.82,5.82,0,0,1-4.08,1.31,8.55,8.55,0,0,1-2-.25,7.71,7.71,0,0,1-1.87-.68l.35-1.79a6.67,6.67,0,0,0,1.61.57,8.29,8.29,0,0,0,1.86.22,3.36,3.36,0,0,0,2.45-.77,3.17,3.17,0,0,0,.77-2.33V16.89A4.08,4.08,0,0,1,540,18.1a4.62,4.62,0,0,1-2,.41,4.33,4.33,0,0,1-3.62-1.68A7,7,0,0,1,533,12.41Zm2.31.25a5.38,5.38,0,0,0,.78,3.07,2.72,2.72,0,0,0,2.42,1.16,3.05,3.05,0,0,0,1.74-.47,3.59,3.59,0,0,0,1.16-1.34V9a3.58,3.58,0,0,0-1.16-1.28,3,3,0,0,0-1.72-.47,2.62,2.62,0,0,0-2.44,1.37,7.06,7.06,0,0,0-.79,3.56Z"/></svg>